<svg width="16" height="17" viewBox="0 0 16 17" fill="none" xmlns="http://www.w3.org/2000/svg">
<g clip-path="url(#clip0_735_5903)">
<path d="M11.3333 2.16947C11.5083 1.99438 11.7162 1.85548 11.945 1.76072C12.1738 1.66596 12.419 1.61719 12.6666 1.61719C12.9142 1.61719 13.1594 1.66596 13.3882 1.76072C13.617 1.85548 13.8248 1.99438 13.9999 2.16947C14.175 2.34457 14.3139 2.55244 14.4087 2.78121C14.5034 3.00998 14.5522 3.25518 14.5522 3.50281C14.5522 3.75043 14.5034 3.99563 14.4087 4.2244C14.3139 4.45317 14.175 4.66104 13.9999 4.83614L4.99992 13.8361L1.33325 14.8361L2.33325 11.1695L11.3333 2.16947Z" stroke="#474745" stroke-width="2" stroke-linecap="round" stroke-linejoin="round"/>
</g>
<defs>
<clipPath id="clip0_735_5903">
<rect width="16" height="16" fill="white" transform="translate(0 0.169434)"/>
</clipPath>
</defs>
</svg>
