<svg width="22" height="22" viewBox="0 0 22 22" fill="none" xmlns="http://www.w3.org/2000/svg">
<path d="M15.2077 6.9485L9.16683 12.9893L5.876 9.70766L4.5835 11.0002L9.16683 15.5835L16.5002 8.25016L15.2077 6.9485ZM11.0002 1.8335C5.94016 1.8335 1.8335 5.94016 1.8335 11.0002C1.8335 16.0602 5.94016 20.1668 11.0002 20.1668C16.0602 20.1668 20.1668 16.0602 20.1668 11.0002C20.1668 5.94016 16.0602 1.8335 11.0002 1.8335ZM11.0002 18.3335C6.9485 18.3335 3.66683 15.0518 3.66683 11.0002C3.66683 6.9485 6.9485 3.66683 11.0002 3.66683C15.0518 3.66683 18.3335 6.9485 18.3335 11.0002C18.3335 15.0518 15.0518 18.3335 11.0002 18.3335Z" fill="white"/>
</svg>
