<svg width="17" height="18" viewBox="0 0 17 18" fill="none" xmlns="http://www.w3.org/2000/svg">
<path d="M12 7.33331C12 6.27245 11.5786 5.25503 10.8284 4.50489C10.0783 3.75474 9.06087 3.33331 8 3.33331C6.93913 3.33331 5.92172 3.75474 5.17157 4.50489C4.42143 5.25503 4 6.27245 4 7.33331C4 12 2 13.3333 2 13.3333H14C14 13.3333 12 12 12 7.33331Z" stroke="white" stroke-width="2" stroke-linecap="round" stroke-linejoin="round"/>
<path d="M9.15335 16C9.03614 16.2021 8.86791 16.3698 8.6655 16.4864C8.46309 16.6029 8.2336 16.6643 8.00001 16.6643C7.76643 16.6643 7.53694 16.6029 7.33453 16.4864C7.13212 16.3698 6.96389 16.2021 6.84668 16" stroke="white" stroke-width="2" stroke-linecap="round" stroke-linejoin="round"/>
<circle cx="13" cy="4" r="4" fill="#E83F5B"/>
<path d="M11.288 2.922C11.304 2.47 11.444 2.124 11.708 1.884C11.972 1.64 12.34 1.518 12.812 1.518C13.12 1.518 13.382 1.572 13.598 1.68C13.818 1.784 13.984 1.928 14.096 2.112C14.208 2.292 14.264 2.496 14.264 2.724C14.264 2.996 14.198 3.214 14.066 3.378C13.934 3.538 13.784 3.646 13.616 3.702V3.726C14.1 3.906 14.342 4.25 14.342 4.758C14.342 5.01 14.284 5.232 14.168 5.424C14.052 5.616 13.884 5.766 13.664 5.874C13.444 5.982 13.182 6.036 12.878 6.036C12.378 6.036 11.982 5.916 11.69 5.676C11.402 5.432 11.252 5.06 11.24 4.56H12.386C12.378 4.72 12.412 4.844 12.488 4.932C12.564 5.02 12.678 5.064 12.83 5.064C12.946 5.064 13.036 5.028 13.1 4.956C13.168 4.884 13.202 4.788 13.202 4.668C13.202 4.516 13.152 4.404 13.052 4.332C12.956 4.26 12.798 4.224 12.578 4.224H12.368V3.27H12.572C12.724 3.274 12.852 3.25 12.956 3.198C13.064 3.142 13.118 3.032 13.118 2.868C13.118 2.744 13.088 2.652 13.028 2.592C12.968 2.528 12.886 2.496 12.782 2.496C12.666 2.496 12.58 2.538 12.524 2.622C12.472 2.702 12.442 2.802 12.434 2.922H11.288Z" fill="white"/>
</svg>
